<?xml version="1.0" encoding="UTF-8"?>
<svg width="24px" height="24px" viewBox="0 0 24 24" version="1.1" xmlns="http://www.w3.org/2000/svg" xmlns:xlink="http://www.w3.org/1999/xlink">
    <!-- Generator: Sketch 51.3 (57544) - http://www.bohemiancoding.com/sketch -->
    <title>Page 1</title>
    <desc>Created with Sketch.</desc>
    <defs>
        <polygon id="path-1" points="0 0 24 0 24 24 0 24"></polygon>
    </defs>
    <g id="Contra_recibo" stroke="none" stroke-width="1" fill="none" fill-rule="evenodd">
        <g id="pendiente4" transform="translate(-51.000000, -477.000000)">
            <g id="Page-1" transform="translate(51.000000, 477.000000)">
                <mask id="mask-2" fill="white">
                    <use xlink:href="#path-1"></use>
                </mask>
                <g id="Clip-2"></g>
                <path d="M13.9715455,14.1095303 C13.9610212,14.2124342 13.9037225,14.3048139 13.8078347,14.3808225 C13.7084389,14.4603391 13.5844865,14.5000974 13.4383161,14.5000974 L10.5476515,14.5000974 C10.4026506,14.5000974 10.2775287,14.4603391 10.1746248,14.3808225 C10.0693822,14.3048139 10.0155915,14.2124342 10.0155915,14.1095303 L9.7524849,4.40381992 C9.7524849,4.28103683 9.80159813,4.18514909 9.90801013,4.12317287 C10.0109141,4.04014812 10.1383746,3.99805106 10.2845449,3.99805106 L13.7201325,3.99805106 C13.8663029,3.99805106 13.9890859,4.03897876 14.095498,4.12317287 C14.2030793,4.18514909 14.2510232,4.28103683 14.2510232,4.40381992 L13.9715455,14.1095303 Z M14.0007796,19.4839213 C14.0007796,19.6289222 13.9528357,19.7517053 13.856948,19.8511011 C13.7692458,19.9516663 13.6523095,19.9972715 13.5166634,19.9972715 L10.5195868,19.9972715 C10.381602,19.9972715 10.2611577,19.9458195 10.1594231,19.8429156 C10.0541805,19.7365036 10.0003898,19.618398 10.0003898,19.4839213 L10.0003898,16.5149094 C10.0003898,16.3792633 10.0541805,16.2599883 10.1594231,16.155915 C10.2599883,16.0506724 10.381602,15.9980511 10.5160787,15.9980511 L13.5166634,15.9980511 C13.6523095,15.9980511 13.7692458,16.0506724 13.856948,16.1465601 C13.9528357,16.2471253 13.9984408,16.3699084 13.9984408,16.5149094 L13.9984408,19.4839213 L14.0007796,19.4839213 Z M22.3921263,5.97427402 C21.3198207,4.13720522 19.8674722,2.68251803 18.0233873,1.60904307 C16.1874878,0.535568115 14.1796921,0 12.0023387,0 C9.82381602,0 7.81602027,0.535568115 5.97895147,1.60904307 C4.13720522,2.6801793 2.68485675,4.13720522 1.6113818,5.97427402 C0.536737478,7.81602027 0,9.82030793 0,11.9988306 C0,14.176184 0.536737478,16.1839797 1.6113818,18.0245566 C2.68485675,19.8627948 4.13720522,21.317482 5.97778211,22.3909569 C7.81602027,23.4644319 9.82381602,24 12.0023387,24 C14.1796921,24 16.1874878,23.4632625 18.0233873,22.3909569 C19.8651335,21.317482 21.3198207,19.8627948 22.3921263,18.0245566 C23.4644319,16.1839797 24,14.176184 24,11.9988306 C24,9.82030793 23.4644319,7.81134282 22.3921263,5.97427402 Z" id="Fill-1" fill="#008894" mask="url(#mask-2)"></path>
            </g>
        </g>
    </g>
</svg>