<?xml version="1.0" encoding="UTF-8"?>
<svg width="24px" height="23px" viewBox="0 0 24 23" version="1.1" xmlns="http://www.w3.org/2000/svg" xmlns:xlink="http://www.w3.org/1999/xlink">
    <!-- Generator: Sketch 51.3 (57544) - http://www.bohemiancoding.com/sketch -->
    <title>Group 20</title>
    <desc>Created with Sketch.</desc>
    <defs>
        <polygon id="path-1" points="0.000685714286 0.516436364 23.4548571 0.516436364 23.4548571 22.9090909 0.000685714286 22.9090909"></polygon>
    </defs>
    <g id="Contra_recibo" stroke="none" stroke-width="1" fill="none" fill-rule="evenodd">
        <g id="pendiente6" transform="translate(-51.000000, -525.000000)">
            <g id="Group-20" transform="translate(51.000000, 524.000000)">
                <g id="Group-6">
                    <g id="Group-3" transform="translate(0.000000, 0.574691)">
                        <mask id="mask-2" fill="white">
                            <use xlink:href="#path-1"></use>
                        </mask>
                        <g id="Clip-2"></g>
                        <path d="M23.4555429,11.7124364 C23.4555429,17.8935273 18.2029714,22.9095273 11.7275429,22.9095273 C5.25097143,22.9095273 0.000685714286,17.8935273 0.000685714286,11.7124364 C0.000685714286,5.52916364 5.25097143,0.516436364 11.7275429,0.516436364 C18.2029714,0.516436364 23.4555429,5.52916364 23.4555429,11.7124364" id="Fill-1" fill="#008894" mask="url(#mask-2)"></path>
                    </g>
                    <path d="M7.864,17.7703636 C7.98285714,17.9754545 8.16571429,18.0889091 8.368,18.0889091 C8.54171429,18.0889091 8.704,18.0070909 8.83314286,17.8554545 L17.8045714,7.45472727 C17.9497143,7.28781818 18.0182857,7.09581818 17.984,6.91909091 C17.9645714,6.77072727 17.8754286,6.63981818 17.7394286,6.55363636 C17.4434286,6.36927273 16.9885714,6.53618182 16.5234286,7.02490909 L9.06057143,14.1529091 C8.88114286,14.31 8.68685714,14.4769091 8.448,14.4769091 C8.33028571,14.4769091 8.21028571,14.4409091 8.08228571,14.3678182 L5.74971429,12.7958182 C5.52,12.6038182 5.26857143,12.6070909 5.17028571,12.774 C5.09828571,12.8950909 5.12228571,13.0707273 5.22971429,13.2441818 L7.864,17.7703636 Z" id="Fill-4" fill="#FFFFFF"></path>
                </g>
            </g>
        </g>
    </g>
</svg>