<?xml version="1.0" encoding="UTF-8"?>
<svg width="37px" height="37px" viewBox="0 0 37 37" version="1.1" xmlns="http://www.w3.org/2000/svg" xmlns:xlink="http://www.w3.org/1999/xlink">
    <!-- Generator: Sketch 51.3 (57544) - http://www.bohemiancoding.com/sketch -->
    <title>Group 4</title>
    <desc>Created with Sketch.</desc>
    <defs></defs>
    <g id="Contra_recibo" stroke="none" stroke-width="1" fill="none" fill-rule="evenodd">
        <g id="enCierre13" transform="translate(-302.000000, -35.000000)">
            <g id="Group-4" transform="translate(302.000000, 35.000000)">
                <circle id="Oval" fill="#25AE18" fill-rule="nonzero" cx="18.5" cy="18.5" r="18.5"></circle>
                <g id="Group" transform="translate(9.000000, 11.000000)" fill="#FFFFFF">
                    <path d="M17.1909056,3.80259552 C16.7981478,3.80259552 16.4803153,4.1051531 16.4803153,4.47741131 C16.4803153,4.84995401 16.7981478,5.15194261 17.1909056,5.15194261 C17.5836633,5.15194261 17.9014959,4.84995401 17.9014959,4.47741131 C17.9009714,4.1051531 17.5830639,3.80259552 17.1909056,3.80259552 Z M10.000487,4.23850888 C7.72928038,4.23850888 5.88132603,5.99240405 5.88132603,8.14828688 C5.88132603,10.3045253 7.72928038,12.0578515 10.000487,12.0578515 C12.271319,12.0578515 14.1183743,10.3039563 14.1183743,8.14828688 C14.1183743,5.99240405 12.2710193,4.23850888 10.000487,4.23850888 Z M10.000487,12.7896369 C7.3042299,12.7896369 5.11072067,10.7079354 5.11072067,8.14885587 C5.11072067,5.58956292 7.3042299,3.50750586 10.000487,3.50750586 C12.6959949,3.50750586 14.8889796,5.58984742 14.8889796,8.14885587 C14.8889796,10.7073665 12.6956952,12.7896369 10.000487,12.7896369 Z M2.3112916,2.44542489 C1.46156526,2.44542489 0.770305657,3.10132194 0.770305657,3.90785768 L0.770305657,12.8060663 C0.770305657,13.6128154 1.46156526,14.2687836 2.3112916,14.2687836 L17.6884836,14.2687836 C18.5380601,14.2687836 19.2290949,13.6126021 19.2290949,12.8060663 L19.2290949,3.90785768 C19.2290949,3.10132194 18.5380601,2.44542489 17.6884836,2.44542489 L13.952415,2.44542489 L13.5306613,1.01741567 C13.4917751,0.851272155 13.3342824,0.730931902 13.1555109,0.730931902 L6.84388967,0.730931902 C6.66242091,0.730931902 6.50814999,0.848782847 6.46873935,1.01770016 L6.02330922,2.44542489 L2.3112916,2.44542489 Z M17.6884836,15 L2.3112916,15 C1.03666463,15 0,14.0159411 0,12.8060663 L0,3.90785768 C0,2.69798295 1.03666463,1.713924 2.3112916,1.713924 L5.44908273,1.713924 L5.72360855,0.834558231 C5.8356966,0.353126096 6.29925862,0 6.84426429,0 L13.1558106,0 C13.6855316,0 14.1544133,0.351419143 14.2784894,0.838754493 L14.285832,0.868768433 L14.5360072,1.713924 L17.6887833,1.713924 C18.9633354,1.713924 20,2.69798295 20,3.90785768 L20,12.8060663 C19.9997003,14.0159411 18.962736,15 17.6884836,15 Z" id="Fill-1"></path>
                </g>
            </g>
        </g>
    </g>
</svg>