<?xml version="1.0" encoding="UTF-8"?>
<svg width="15px" height="15px" viewBox="0 0 15 15" version="1.1" xmlns="http://www.w3.org/2000/svg" xmlns:xlink="http://www.w3.org/1999/xlink">
    <!-- Generator: Sketch 51.3 (57544) - http://www.bohemiancoding.com/sketch -->
    <title>Group Copy 6</title>
    <desc>Created with Sketch.</desc>
    <defs>
        <polygon id="path-1" points="0 14.6428571 14.6428571 14.6428571 14.6428571 0 0 0"></polygon>
    </defs>
    <g id="Contra_recibo" stroke="none" stroke-width="1" fill="none" fill-rule="evenodd">
        <g id="enCierre2" transform="translate(-43.000000, -131.000000)">
            <g id="Group-Copy-6" transform="translate(43.000000, 131.000000)">
                <g id="Group-5">
                    <path d="M11.9631429,2.84742857 C11.8431429,2.75028571 11.2031429,2.49957143 10.7817143,2.75957143 C10.7817143,2.75957143 10.4088571,3.10742857 9.85957143,3.65314286 L9.66242857,3.92385714 L9.62242857,3.89171429 C9.16314286,4.34885714 8.616,4.90814286 8.05814286,5.511 C7.13171429,6.50742857 6.19314286,7.74028571 5.51385714,8.68028571 L4.22742857,6.84742857 C4.00957143,6.27028571 3.53385714,5.976 2.95385714,6.19457143 C2.37171429,6.41242857 2.33957143,7.09814286 2.55885714,7.67671429 L4.26242857,11.1981429 C4.26242857,11.1981429 4.26528571,11.2052857 4.26528571,11.2081429 C4.32242857,11.3931429 4.41957143,11.5624286 4.57171429,11.7024286 C5.02814286,12.1202857 5.73814286,12.091 6.15957143,11.6402857 C6.15957143,11.6402857 7.83242857,8.80528571 9.61957143,6.88028571 C10.9324286,5.46171429 12.0788571,3.97528571 12.0788571,3.97528571 C12.3731429,3.47957143 12.0981429,2.95957143 11.9631429,2.84742857" id="Fill-1" fill="#008996"></path>
                    <mask id="mask-2" fill="white">
                        <use xlink:href="#path-1"></use>
                    </mask>
                    <g id="Clip-4"></g>
                    <polygon id="Stroke-3" stroke="#40403F" stroke-width="0.5" mask="url(#mask-2)" points="0.178571429 14.4642857 14.4642857 14.4642857 14.4642857 0.178571429 0.178571429 0.178571429"></polygon>
                </g>
            </g>
        </g>
    </g>
</svg>