<?xml version="1.0" encoding="UTF-8"?>
<svg width="25px" height="25px" viewBox="0 0 25 25" version="1.1" xmlns="http://www.w3.org/2000/svg" xmlns:xlink="http://www.w3.org/1999/xlink">
    <!-- Generator: Sketch 52.3 (67297) - http://www.bohemiancoding.com/sketch -->
    <title>Group 3</title>
    <desc>Created with Sketch.</desc>
    <defs>
        <polygon id="path-1" points="0 0.201388889 25 0.201388889 25 24.2013889 0 24.2013889"></polygon>
    </defs>
    <g id="Contra_recibo" stroke="none" stroke-width="1" fill="none" fill-rule="evenodd" opacity="0.89453125">
        <g id="Menu_" transform="translate(-26.000000, -504.000000)">
            <g id="Group-3" transform="translate(26.000000, 504.000000)">
                <mask id="mask-2" fill="white">
                    <use xlink:href="#path-1"></use>
                </mask>
                <g id="Clip-2"></g>
                <path d="M15.8117485,17.1788103 L13.3283495,13.9033449 L21.5549137,9.38527847 L24.0134103,12.2228888 L15.8117485,17.1788103 Z M21.2531558,18.3045856 C21.2531558,18.5174788 21.1369449,18.7178205 20.94798,18.8249912 L13.1242479,23.2923688 L13.1242479,14.9233977 L15.399639,17.9217641 C15.4758109,18.0236246 15.5944632,18.0762444 15.7126273,18.0762444 C15.7829399,18.0762444 15.8537406,18.0574171 15.9167289,18.0197626 L21.2531558,14.7954687 L21.2531558,18.3045856 Z M4.46848436,18.8119569 C4.2970976,18.7120275 4.18821086,18.5290648 4.18821086,18.3311369 L4.18821086,15.0609818 L9.59202059,18.0274866 C9.65110263,18.0612791 9.71555577,18.0762444 9.78049719,18.0762444 C9.9006144,18.0762444 10.0192668,18.0216936 10.0954387,17.9217641 L12.3439743,14.9311218 L12.3439743,23.3054031 L4.46848436,18.8119569 Z M3.95725378,9.39638175 L12.1496383,13.8936899 L9.67209873,17.1884654 L1.4665306,12.6815022 L3.95725378,9.39638175 Z M9.71750889,1.07085829 L12.1188766,3.44502763 L3.88889439,8.41977651 L1.06223364,6.02484888 L9.71750889,1.07085829 Z M15.7790336,1.06699629 L24.0016916,5.58168348 L21.5641911,8.3932252 L13.3605761,3.43730361 L15.7790336,1.06699629 Z M13.1242479,4.20101567 L20.8679019,8.87983819 L13.1242479,13.1319089 L13.1242479,4.20101567 Z M12.3439743,13.1188746 L4.62522267,8.87983819 L12.3439743,4.21598095 L12.3439743,13.1188746 Z M22.1574529,8.89480347 L24.9059886,5.72457777 C24.9821605,5.63816534 25.0143871,5.5194086 24.9938793,5.40596212 C24.9728832,5.29106739 24.9020824,5.19306894 24.799055,5.13658707 L15.9011039,0.250664375 C15.7507133,0.167631206 15.5617484,0.192251506 15.4377249,0.312939251 L12.7350876,2.96227665 L10.0573527,0.314387504 C9.93332925,0.190320502 9.73850499,0.165700202 9.58616121,0.254043632 L0.194069398,5.62851032 C0.0856709378,5.6907852 0.0129170163,5.80230068 0.00168654519,5.92636768 C-0.0100322073,6.05284844 0.0397724907,6.17353618 0.13694048,6.25656935 L3.31858177,8.95321634 L0.571999165,12.5719177 C0.505104619,12.6607439 0.478249145,12.7756386 0.503151494,12.8852231 C0.526100718,12.9943248 0.596901514,13.0865303 0.696022628,13.1415639 L3.43088648,14.6443677 C3.41965601,14.6800913 3.40793726,14.7177458 3.40793726,14.7592624 L3.40793726,18.3311369 C3.40793726,18.8023019 3.66379669,19.2435363 4.07785927,19.4815325 L12.027568,24.0184263 C12.2409469,24.139114 12.4811813,24.2013889 12.7219041,24.2013889 C12.7238572,24.2013889 12.725322,24.1994579 12.7272751,24.1994579 C12.7389939,24.2013889 12.740947,24.1994579 12.7463181,24.1994579 C12.9772752,24.1955959 13.2082323,24.135252 13.414287,24.0184263 L21.3390934,19.4945668 C21.7682927,19.2493293 22.0334294,18.7931296 22.0334294,18.3045856 L22.0334294,14.323821 L24.8122386,12.6452959 C24.9098949,12.584952 24.9763012,12.4869535 24.9953441,12.3759208 C25.0129223,12.2644053 24.9802074,12.1495106 24.9059886,12.0645464 L22.1574529,8.89480347 Z" id="Fill-1" fill="#008894" mask="url(#mask-2)"></path>
            </g>
        </g>
    </g>
</svg>