<?xml version="1.0" encoding="UTF-8"?>
<svg width="25px" height="24px" viewBox="0 0 25 24" version="1.1" xmlns="http://www.w3.org/2000/svg" xmlns:xlink="http://www.w3.org/1999/xlink">
    <!-- Generator: Sketch 51.3 (57544) - http://www.bohemiancoding.com/sketch -->
    <title>Group 37</title>
    <desc>Created with Sketch.</desc>
    <defs>
        <polygon id="path-1" points="0 0 25 0 25 24 0 24"></polygon>
    </defs>
    <g id="Contra_recibo" stroke="none" stroke-width="1" fill="none" fill-rule="evenodd">
        <g id="Group-37">
            <g id="Group-16-Copy-5">
                <text id="!" opacity="0.5" font-family="Roboto-Black, Roboto" font-size="10" font-weight="700" fill="#7A7C8F">
                    <tspan x="11" y="20">!</tspan>
                </text>
                <g id="Group-3">
                    <mask id="mask-2" fill="white">
                        <use xlink:href="#path-1"></use>
                    </mask>
                    <g id="Clip-2"></g>
                    <path d="M22.1561549,23.1418049 L2.84443211,23.1418049 L0.884258872,9.85799424 L24.1158065,9.85799424 L22.1561549,23.1418049 Z M4.59074931,5.99933037 L20.4463497,5.99933037 L20.4463497,5.57237562 L4.59074931,5.57237562 L4.59074931,5.99933037 Z M4.17294761,7.28662307 L20.8641514,7.28662307 L20.8641514,6.8575255 L4.17294761,6.8575255 L4.17294761,7.28662307 Z M3.75514592,9.00033481 L21.2819531,9.00033481 L21.2819531,8.14213968 L3.75514592,8.14213968 L3.75514592,9.00033481 Z M2.50434884,0.85819513 L8.1094637,0.85819513 L9.14640474,2.63244124 C9.27889117,2.85850762 9.52143522,3.00100444 9.78014888,3.00100444 L22.5327502,3.00100444 L22.5327502,9.00033481 L22.1170349,9.00033481 L22.1170349,7.28662307 L21.6997548,7.28662307 L21.6997548,5.99933037 L21.2819531,5.99933037 L21.2819531,4.71471619 L3.75514592,4.71471619 L3.75514592,5.99933037 L3.33943063,5.99933037 L3.33943063,7.28662307 L2.92215053,7.28662307 L2.92215053,9.00033481 L2.50434884,9.00033481 L2.50434884,0.85819513 Z M24.8721267,9.19050914 C24.7719795,9.06944041 24.6254098,9.00033481 24.4704946,9.00033481 L23.3683536,9.00033481 L23.3683536,2.9002924 C23.3683536,2.48190889 23.0360943,2.14280931 22.630811,2.14280931 L9.83335209,2.14280931 L8.79588946,0.368563202 C8.66548943,0.14035401 8.42294537,0 8.16423172,0 L2.40628802,0 C2.00100472,0 1.66874545,0.341242383 1.66874545,0.757483092 L1.66874545,9.00033481 L0.530092392,9.00033481 C0.377263557,9.00033481 0.230172324,9.06944041 0.128460301,9.18836633 C0.0288346783,9.30782795 -0.0181093323,9.46693154 0.00640587326,9.62603513 L2.05785914,23.5376889 C2.09854395,23.8055401 2.3186592,24 2.58154565,24 L22.4169549,24 C22.6814062,24 22.9015214,23.8055401 22.9422063,23.5355461 L24.9941811,9.62817794 C25.0166099,9.47121716 24.9738387,9.30997076 24.8721267,9.19050914 Z" id="Fill-1" fill="#7A7C8F" opacity="0.5" mask="url(#mask-2)"></path>
                </g>
            </g>
        </g>
    </g>
</svg>