<?xml version="1.0" encoding="UTF-8"?>
<svg width="25px" height="24px" viewBox="0 0 25 24" version="1.1" xmlns="http://www.w3.org/2000/svg" xmlns:xlink="http://www.w3.org/1999/xlink">
    <!-- Generator: Sketch 51.3 (57544) - http://www.bohemiancoding.com/sketch -->
    <title>Group 27</title>
    <desc>Created with Sketch.</desc>
    <defs>
        <polygon id="path-1" points="0 0 25 0 25 24 0 24"></polygon>
    </defs>
    <g id="Contra_recibo" stroke="none" stroke-width="1" fill="none" fill-rule="evenodd" opacity="0.9">
        <g id="Group-27">
            <g id="Group-3-Copy-2">
                <mask id="mask-2" fill="white">
                    <use xlink:href="#path-1"></use>
                </mask>
                <g id="Clip-2"></g>
                <path d="M22.1561549,23.1418049 L2.84443211,23.1418049 L0.884258872,9.85799424 L24.1158065,9.85799424 L22.1561549,23.1418049 Z M2.50434884,0.85819513 L8.1094637,0.85819513 L9.14640474,2.63244124 C9.27889117,2.85850762 9.52143522,3.00100444 9.78014888,3.00100444 L22.5327502,3.00100444 L22.5327502,9.00033481 L22.1170349,9.00033481 L2.92215053,9.00033481 L2.50434884,9.00033481 L2.50434884,0.85819513 Z M24.4704946,9.00033481 L23.3683536,9.00033481 L23.3683536,2.9002924 C23.3683536,2.48190889 23.0360943,2.14280931 22.630811,2.14280931 L9.83335209,2.14280931 L8.79588946,0.368563202 C8.66548943,0.14035401 8.42294537,0 8.16423172,0 L2.40628802,0 C2.00100472,0 1.66874545,0.341242383 1.66874545,0.757483092 L1.66874545,9.00033481 L0.530092392,9.00033481 C0.377263557,9.00033481 0.230172324,9.06944041 0.128460301,9.18836633 C0.0288346783,9.30782795 -0.0181093323,9.46693154 0.00640587326,9.62603513 L2.05785914,23.5376889 C2.09854395,23.8055401 2.3186592,24 2.58154565,24 L22.4169549,24 C22.6814062,24 22.9015214,23.8055401 22.9422063,23.5355461 L24.9941811,9.62817794 C25.0166099,9.47121716 24.9738387,9.30997076 24.8721267,9.19050914 C24.7719795,9.06944041 24.6254098,9.00033481 24.4704946,9.00033481 Z" id="Fill-1" fill="#008894" mask="url(#mask-2)"></path>
            </g>
            <path d="M8.48825525,19.1436053 C8.55293388,19.2552099 8.65243946,19.3169486 8.76251751,19.3169486 C8.85704781,19.3169486 8.94535902,19.2724255 9.01563483,19.1899093 L13.8976274,13.5301337 C13.9766099,13.4393065 14.0139245,13.3348257 13.9952672,13.2386558 C13.9846948,13.1579206 13.9361858,13.0866836 13.8621785,13.039786 C13.7011039,12.9394606 13.4535837,13.0302877 13.2004664,13.296239 L9.1393949,17.1750909 C9.04175505,17.2605753 8.93603037,17.3514024 8.8060512,17.3514024 C8.74199449,17.3514024 8.67669395,17.3318122 8.60704004,17.2920382 L7.33772198,16.4366012 C7.21271809,16.3321203 7.07589792,16.3339013 7.02241367,16.4247284 C6.98323334,16.4906226 6.99629345,16.5861988 7.05475298,16.6805878 L8.48825525,19.1436053 Z" id="Fill-4-Copy-2" fill="#008894"></path>
            <path d="M13.4882553,19.1436053 C13.5529339,19.2552099 13.6524395,19.3169486 13.7625175,19.3169486 C13.8570478,19.3169486 13.945359,19.2724255 14.0156348,19.1899093 L18.8976274,13.5301337 C18.9766099,13.4393065 19.0139245,13.3348257 18.9952672,13.2386558 C18.9846948,13.1579206 18.9361858,13.0866836 18.8621785,13.039786 C18.7011039,12.9394606 18.4535837,13.0302877 18.2004664,13.296239 L14.1393949,17.1750909 C14.041755,17.2605753 13.9360304,17.3514024 13.8060512,17.3514024 C13.7419945,17.3514024 13.6766939,17.3318122 13.60704,17.2920382 L12.337722,16.4366012 C12.2127181,16.3321203 12.0758979,16.3339013 12.0224137,16.4247284 C11.9832333,16.4906226 11.9962935,16.5861988 12.054753,16.6805878 L13.4882553,19.1436053 Z" id="Fill-4-Copy-3" fill="#008894"></path>
        </g>
    </g>
</svg>