<?xml version="1.0" encoding="UTF-8"?>
<svg width="17px" height="13px" viewBox="0 0 17 13" version="1.1" xmlns="http://www.w3.org/2000/svg" xmlns:xlink="http://www.w3.org/1999/xlink">
    <!-- Generator: Sketch 51.3 (57544) - http://www.bohemiancoding.com/sketch -->
    <title>Group 5 Copy 18</title>
    <desc>Created with Sketch.</desc>
    <defs></defs>
    <g id="Contra_recibo" stroke="none" stroke-width="1" fill="none" fill-rule="evenodd">
        <g id="enCierre14" transform="translate(-299.000000, -174.000000)" fill="#008894">
            <g id="Group-5-Copy-18" transform="translate(299.000000, 174.000000)">
                <path d="M0.586964955,12.4340915 L16.414867,12.4340915 L16.414867,0.565908535 L0.586964955,0.565908535 L0.586964955,12.4340915 Z M16.7083495,0 L0.293482478,0 C0.131535842,0 0,0.126817206 0,0.282954268 L0,12.7170457 C0,12.8728295 0.131535842,13 0.293482478,13 L16.7083495,13 C16.8699297,13 17,12.8728295 17,12.7170457 L17,0.282954268 C17,0.126817206 16.8699297,0 16.7083495,0 Z" id="Fill-1"></path>
                <path d="M4.5006734,3.53771044 C5.03063973,3.53771044 5.46195286,3.96936027 5.46195286,4.4993266 C5.46195286,5.02929293 5.03063973,5.46060606 4.5006734,5.46060606 C3.97070707,5.46060606 3.53905724,5.02929293 3.53905724,4.5006734 C3.53905724,3.97070707 3.97070707,3.53771044 4.5006734,3.53771044 M4.5006734,6 C5.32794613,6 6,5.32659933 6,4.5006734 C6,3.67205387 5.32794613,3 4.5006734,3 C3.67340067,3 3,3.67205387 3,4.4993266 C3,5.32659933 3.67340067,6 4.5006734,6" id="Fill-3"></path>
                <path d="M1.34165583,12 C1.42122906,12 1.50122782,11.9748888 1.56590767,11.9242859 L7.11943863,7.55341457 L10.6266183,10.6877494 C10.7593822,10.8064569 10.973847,10.8064569 11.1070364,10.6877494 C11.2398003,10.5686614 11.2398003,10.3769031 11.1070364,10.2581956 L9.47131708,8.79413632 L12.596375,5.73399372 L16.4295071,8.87593797 C16.5690794,8.99046028 16.7835442,8.98132893 16.9112018,8.85805575 C17.0375828,8.73326068 17.0277957,8.54150239 16.8899255,8.42698009 L12.8040314,5.07881959 C12.7376494,5.02517292 12.6495657,4.99853983 12.5597799,5.00006172 C12.469994,5.00272503 12.3836124,5.03848947 12.3236133,5.09784323 L8.98919689,8.36306066 L7.37347725,6.91992739 C7.24709623,6.80578555 7.04284408,6.80121988 6.90837808,6.90661084 L1.11527636,11.4665772 C0.97400195,11.5780557 0.960810665,11.7709554 1.08548958,11.8972723 C1.15187153,11.9657574 1.24676368,12 1.34165583,12" id="Fill-4"></path>
            </g>
        </g>
    </g>
</svg>