<?xml version="1.0" encoding="UTF-8"?>
<svg width="12px" height="16px" viewBox="0 0 12 16" version="1.1" xmlns="http://www.w3.org/2000/svg" xmlns:xlink="http://www.w3.org/1999/xlink">
    <!-- Generator: Sketch 51.3 (57544) - http://www.bohemiancoding.com/sketch -->
    <title>mapmarker-icon</title>
    <desc>Created with Sketch.</desc>
    <defs></defs>
    <g id="Contra_recibo" stroke="none" stroke-width="1" fill="none" fill-rule="evenodd">
        <g id="pendiente2" transform="translate(-20.000000, -154.000000)" fill="#25AE18" fill-rule="nonzero">
            <path d="M26.7803109,169.625392 C26.3799971,170.124869 25.6200029,170.124869 25.2196891,169.625392 C21.746528,165.291876 20,162.148125 20,160 C20,156.686292 22.6862915,154 26,154 C29.3137085,154 32,156.686292 32,160 C32,162.148125 30.253472,165.291876 26.7803109,169.625392 Z M30,160 C30,157.790861 28.209139,156 26,156 C23.790861,156 22,157.790861 22,160 C22,161.403266 23.3282545,163.913526 26,167.382102 C28.6717455,163.913526 30,161.403266 30,160 Z M26,161.666667 C25.0795254,161.666667 24.3333333,160.920475 24.3333333,160 C24.3333333,159.079525 25.0795254,158.333333 26,158.333333 C26.9204746,158.333333 27.6666667,159.079525 27.6666667,160 C27.6666667,160.920475 26.9204746,161.666667 26,161.666667 Z" id="mapmarker-icon"></path>
        </g>
    </g>
</svg>