<?xml version="1.0" encoding="UTF-8"?>
<svg width="15px" height="14px" viewBox="0 0 15 14" version="1.1" xmlns="http://www.w3.org/2000/svg" xmlns:xlink="http://www.w3.org/1999/xlink">
    <!-- Generator: Sketch 51.3 (57544) - http://www.bohemiancoding.com/sketch -->
    <title>Group 15</title>
    <desc>Created with Sketch.</desc>
    <defs></defs>
    <g id="Contra_recibo" stroke="none" stroke-width="1" fill="none" fill-rule="evenodd">
        <g id="pendientes12" transform="translate(-290.000000, -212.000000)" fill="#008894">
            <g id="Group-15" transform="translate(290.000000, 212.000000)">
                <path d="M10.771,4.243 L14.297,4.243 L14.297,0.717 L10.771,0.717 L10.771,4.243 Z M14.64,0.031 L10.428,0.031 C10.239,0.031 10.085,0.185 10.085,0.374 L10.085,4.585 C10.085,4.774 10.239,4.928 10.428,4.928 L14.64,4.928 C14.829,4.928 14.982,4.774 14.982,4.585 L14.982,0.374 C14.982,0.185 14.829,0.031 14.64,0.031 Z" id="Fill-1"></path>
                <path d="M12.083,2.891 L12.906,2.891 L12.906,2.068 L12.083,2.068 L12.083,2.891 Z M11.741,3.576 L13.249,3.576 C13.438,3.576 13.591,3.423 13.591,3.233 L13.591,1.726 C13.591,1.537 13.438,1.383 13.249,1.383 L11.741,1.383 C11.552,1.383 11.398,1.537 11.398,1.726 L11.398,3.233 C11.398,3.423 11.552,3.576 11.741,3.576 Z" id="Fill-3"></path>
                <path d="M0.685,4.243 L4.211,4.243 L4.211,0.717 L0.685,0.717 L0.685,4.243 Z M4.554,0.031 L0.342,0.031 C0.153,0.031 0,0.185 0,0.374 L0,4.585 C0,4.774 0.153,4.928 0.342,4.928 L4.554,4.928 C4.743,4.928 4.896,4.774 4.896,4.585 L4.896,0.374 C4.896,0.185 4.743,0.031 4.554,0.031 Z" id="Fill-4"></path>
                <path d="M2.037,2.891 L2.86,2.891 L2.86,2.068 L2.037,2.068 L2.037,2.891 Z M1.694,3.576 L3.202,3.576 C3.392,3.576 3.545,3.423 3.545,3.233 L3.545,1.726 C3.545,1.537 3.392,1.383 3.202,1.383 L1.694,1.383 C1.505,1.383 1.352,1.537 1.352,1.726 L1.352,3.233 C1.352,3.423 1.505,3.576 1.694,3.576 Z" id="Fill-5"></path>
                <path d="M0.685,13.148 L4.211,13.148 L4.211,9.621 L0.685,9.621 L0.685,13.148 Z M4.554,8.937 L0.342,8.937 C0.153,8.937 0,9.09 0,9.279 L0,13.49 C0,13.68 0.153,13.833 0.342,13.833 L4.554,13.833 C4.743,13.833 4.896,13.68 4.896,13.49 L4.896,9.279 C4.896,9.09 4.743,8.937 4.554,8.937 Z" id="Fill-6"></path>
                <path d="M2.037,11.796 L2.86,11.796 L2.86,10.973 L2.037,10.973 L2.037,11.796 Z M1.694,12.481 L3.202,12.481 C3.392,12.481 3.545,12.328 3.545,12.139 L3.545,10.63 C3.545,10.441 3.392,10.288 3.202,10.288 L1.694,10.288 C1.505,10.288 1.352,10.441 1.352,10.63 L1.352,12.139 C1.352,12.328 1.505,12.481 1.694,12.481 Z" id="Fill-7"></path>
                <path d="M0.716,7.254 L1.576,7.254 L1.576,6.394 L0.716,6.394 L0.716,7.254 Z M0.374,7.938 L1.918,7.938 C2.107,7.938 2.261,7.785 2.261,7.596 L2.261,6.051 C2.261,5.862 2.107,5.708 1.918,5.708 L0.374,5.708 C0.184,5.708 0.031,5.862 0.031,6.051 L0.031,7.596 C0.031,7.785 0.184,7.938 0.374,7.938 Z" id="Fill-8"></path>
                <path d="M10.306,10.287 L11.166,10.287 L11.166,9.427 L10.306,9.427 L10.306,10.287 Z M11.508,8.742 L9.963,8.742 C9.774,8.742 9.621,8.895 9.621,9.084 L9.621,10.629 C9.621,10.818 9.774,10.972 9.963,10.972 L11.508,10.972 C11.697,10.972 11.851,10.818 11.851,10.629 L11.851,9.084 C11.851,8.895 11.697,8.742 11.508,8.742 Z" id="Fill-9"></path>
                <path d="M13.437,10.287 L14.297,10.287 L14.297,9.427 L13.437,9.427 L13.437,10.287 Z M14.64,8.742 L13.095,8.742 C12.906,8.742 12.752,8.895 12.752,9.084 L12.752,10.629 C12.752,10.818 12.906,10.972 13.095,10.972 L14.64,10.972 C14.829,10.972 14.982,10.818 14.982,10.629 L14.982,9.084 C14.982,8.895 14.829,8.742 14.64,8.742 Z" id="Fill-10"></path>
                <path d="M13.437,13.19 L14.297,13.19 L14.297,12.33 L13.437,12.33 L13.437,13.19 Z M14.64,11.645 L13.095,11.645 C12.906,11.645 12.752,11.798 12.752,11.987 L12.752,13.532 C12.752,13.722 12.906,13.875 13.095,13.875 L14.64,13.875 C14.829,13.875 14.982,13.722 14.982,13.532 L14.982,11.987 C14.982,11.798 14.829,11.645 14.64,11.645 Z" id="Fill-11"></path>
                <path d="M8.153,13.19 L11.003,13.19 L11.003,12.33 L8.153,12.33 L8.153,13.19 Z M6.522,11.363 L7.382,11.363 L7.382,10.503 L6.522,10.503 L6.522,11.363 Z M11.345,11.645 L8.067,11.645 L8.067,10.161 C8.067,9.972 7.914,9.818 7.725,9.818 L6.18,9.818 C5.99,9.818 5.837,9.972 5.837,10.161 L5.837,11.706 C5.837,11.895 5.99,12.048 6.18,12.048 L7.468,12.048 L7.468,13.532 C7.468,13.722 7.621,13.875 7.811,13.875 L11.345,13.875 C11.534,13.875 11.688,13.722 11.688,13.532 L11.688,11.987 C11.688,11.798 11.534,11.645 11.345,11.645 Z" id="Fill-12"></path>
                <path d="M10.502,7.253 L14.297,7.253 L14.297,6.393 L10.502,6.393 L10.502,7.253 Z M14.64,5.708 L10.159,5.708 C9.97,5.708 9.816,5.862 9.816,6.051 L9.816,7.596 C9.816,7.785 9.97,7.938 10.159,7.938 L14.64,7.938 C14.829,7.938 14.982,7.785 14.982,7.596 L14.982,6.051 C14.982,5.862 14.829,5.708 14.64,5.708 Z" id="Fill-13"></path>
                <path d="M6.261,7.685 L7.121,7.685 L7.121,3.914 L6.261,3.914 L6.261,7.685 Z M6.261,1.545 L7.121,1.545 L7.121,0.685 L6.261,0.685 L6.261,1.545 Z M7.872,3.024 L8.732,3.024 L8.732,2.164 L7.872,2.164 L7.872,3.024 Z M7.463,8.37 C7.653,8.37 7.806,8.217 7.806,8.027 L7.806,3.709 L9.075,3.709 C9.264,3.709 9.417,3.556 9.417,3.366 L9.417,1.821 C9.417,1.632 9.264,1.479 9.075,1.479 L7.806,1.479 L7.806,0.342 C7.806,0.153 7.653,0 7.463,0 L5.918,0 C5.729,0 5.576,0.153 5.576,0.342 L5.576,1.888 C5.576,2.077 5.729,2.23 5.918,2.23 L7.187,2.23 L7.187,3.229 L5.918,3.229 C5.729,3.229 5.576,3.382 5.576,3.571 L5.576,8.027 C5.576,8.217 5.729,8.37 5.918,8.37 L7.463,8.37 Z" id="Fill-14"></path>
            </g>
        </g>
    </g>
</svg>