<?xml version="1.0" encoding="UTF-8"?>
<svg width="73px" height="35px" viewBox="0 0 73 35" version="1.1" xmlns="http://www.w3.org/2000/svg" xmlns:xlink="http://www.w3.org/1999/xlink">
    <!-- Generator: Sketch 51.2 (57519) - http://www.bohemiancoding.com/sketch -->
    <title>codigo_de_barras/1</title>
    <desc>Created with Sketch.</desc>
    <defs>
        <polygon id="path-1" points="0 9e-05 8.99964 9e-05 8.99964 9.00009 0 9.00009"></polygon>
        <polygon id="path-3" points="0.666818182 9e-05 9.75772727 9e-05 9.75772727 9 0.666818182 9"></polygon>
        <polygon id="path-5" points="0.667272727 9e-05 9.75818182 9e-05 9.75818182 9.00009 0.667272727 9.00009"></polygon>
        <polygon id="path-7" points="0 9e-05 8.99964 9e-05 8.99964 9 0 9"></polygon>
    </defs>
    <g id="Symbols" stroke="none" stroke-width="1" fill="none" fill-rule="evenodd">
        <g id="codigo_de_barras/1">
            <g id="Page-1">
                <g id="Group-3">
                    <mask id="mask-2" fill="white">
                        <use xlink:href="#path-1"></use>
                    </mask>
                    <g id="Clip-2"></g>
                    <path d="M1.49994,9.00009 C2.32794,9.00009 3.00024,8.32779 3.00024,7.49979 L3.00024,2.99979 L7.50024,2.99979 C8.32824,2.99979 8.99964,2.32749 8.99964,1.50039 C8.99964,0.67239 8.32824,9e-05 7.50024,9e-05 L1.49994,9e-05 C0.67194,9e-05 -0.00036,0.67239 -0.00036,1.50039 L-0.00036,7.49979 C-0.00036,8.32779 0.67194,9.00009 1.49994,9.00009" id="Fill-1" fill="#008895" mask="url(#mask-2)"></path>
                </g>
                <g id="Group-6" transform="translate(63.000000, 26.000000)">
                    <mask id="mask-4" fill="white">
                        <use xlink:href="#path-3"></use>
                    </mask>
                    <g id="Clip-5"></g>
                    <path d="M2.18227273,9.00009 L8.24318182,9.00009 C9.07954545,9.00009 9.75772727,8.32779 9.75772727,7.49979 L9.75772727,1.50039 C9.75772727,0.67239 9.07954545,9e-05 8.24318182,9e-05 C7.40681818,9e-05 6.72772727,0.67239 6.72772727,1.50039 L6.72772727,6.00039 L2.18227273,6.00039 C1.34590909,6.00039 0.666818182,6.67179 0.666818182,7.49979 C0.666818182,8.32779 1.34590909,9.00009 2.18227273,9.00009" id="Fill-4" fill="#008895" mask="url(#mask-4)"></path>
                </g>
                <g id="Group-9" transform="translate(63.000000, 0.000000)">
                    <mask id="mask-6" fill="white">
                        <use xlink:href="#path-5"></use>
                    </mask>
                    <g id="Clip-8"></g>
                    <path d="M8.24272727,9.00009 C9.07909091,9.00009 9.75818182,8.32779 9.75818182,7.49979 L9.75818182,1.50039 C9.75818182,0.67239 9.07909091,9e-05 8.24272727,9e-05 L2.18181818,9e-05 C1.34636364,9e-05 0.667272727,0.67239 0.667272727,1.50039 C0.667272727,2.32749 1.34636364,2.99979 2.18181818,2.99979 L6.72727273,2.99979 L6.72727273,7.49979 C6.72727273,8.32779 7.40636364,9.00009 8.24272727,9.00009" id="Fill-7" fill="#008895" mask="url(#mask-6)"></path>
                </g>
                <g id="Group-12" transform="translate(0.000000, 26.000000)">
                    <mask id="mask-8" fill="white">
                        <use xlink:href="#path-7"></use>
                    </mask>
                    <g id="Clip-11"></g>
                    <path d="M1.49994,9.00009 L7.50024,9.00009 C8.32824,9.00009 8.99964,8.32779 8.99964,7.49979 C8.99964,6.67179 8.32824,6.00039 7.50024,6.00039 L3.00024,6.00039 L3.00024,1.50039 C3.00024,0.67239 2.32794,9e-05 1.49994,9e-05 C0.67194,9e-05 -0.00036,0.67239 -0.00036,1.50039 L-0.00036,7.49979 C-0.00036,8.32779 0.67194,9.00009 1.49994,9.00009" id="Fill-10" fill="#008895" mask="url(#mask-8)"></path>
                </g>
                <path d="M36.5,6 C35.6721656,6 35,6.64427945 35,7.43776953 L35,27.5622305 C35,28.3557206 35.6721656,29 36.5,29 C37.3278344,29 38,28.3557206 38,27.5622305 L38,7.43776953 C38,6.64427945 37.3278344,6 36.5,6" id="Fill-13" fill="#008895"></path>
                <path d="M42.5,6 C41.6721656,6 41,6.63495 41,7.41695 L41,21.58305 C41,22.36505 41.6721656,23 42.5,23 C43.3278344,23 44,22.36505 44,21.58305 L44,7.41695 C44,6.63495 43.3278344,6 42.5,6" id="Fill-15" fill="#008895"></path>
                <path d="M48.5,6 C47.6721656,6 47,6.63495 47,7.41695 L47,21.58305 C47,22.36505 47.6721656,23 48.5,23 C49.3278344,23 50,22.36505 50,21.58305 L50,7.41695 C50,6.63495 49.3278344,6 48.5,6" id="Fill-17" fill="#008895"></path>
                <path d="M56,27.5622305 L56,7.43776953 C56,6.64427945 55.3276328,6 54.49955,6 C53.6714671,6 53,6.64427945 53,7.43776953 L53,27.5622305 C53,28.3557206 53.6714671,29 54.49955,29 C55.3276328,29 56,28.3557206 56,27.5622305" id="Fill-19" fill="#008895"></path>
                <path d="M59.5,6 C58.6721656,6 58,6.63495 58,7.41695 L58,21.58305 C58,22.36505 58.6721656,23 59.5,23 C60.3278344,23 61,22.36505 61,21.58305 L61,7.41695 C61,6.63495 60.3278344,6 59.5,6" id="Fill-21" fill="#008895"></path>
                <path d="M64,27.5622305 C64,28.3557206 64.6723672,29 65.50045,29 C66.3276328,29 67,28.3557206 67,27.5622305 L67,7.43776953 C67,6.64427945 66.3276328,6 65.50045,6 C64.6723672,6 64,6.64427945 64,7.43776953 L64,27.5622305 Z" id="Fill-23" fill="#008895"></path>
                <path d="M42.5071642,26 L42.4776119,26 C41.6537313,26 41,26.6723672 41,27.50045 C41,28.3276328 41.6832836,29 42.5071642,29 C43.3310448,29 44,28.3276328 44,27.50045 C44,26.6723672 43.3310448,26 42.5071642,26" id="Fill-25" fill="#008895"></path>
                <path d="M48.5076097,26 L48.477171,26 C47.6535363,26 47,26.6723672 47,27.50045 C47,28.3276328 47.6839749,29 48.5076097,29 C49.3312444,29 50,28.3276328 50,27.50045 C50,26.6723672 49.3312444,26 48.5076097,26" id="Fill-27" fill="#008895"></path>
                <path d="M59.5071642,26 L59.4776119,26 C58.6537313,26 58,26.6723672 58,27.50045 C58,28.3276328 58.6832836,29 59.5071642,29 C60.3310448,29 61,28.3276328 61,27.50045 C61,26.6723672 60.3310448,26 59.5071642,26" id="Fill-29" fill="#008895"></path>
                <path d="M7.5,6 C6.67216557,6 6,6.64427945 6,7.43776953 L6,27.5622305 C6,28.3557206 6.67216557,29 7.5,29 C8.32783443,29 9,28.3557206 9,27.5622305 L9,7.43776953 C9,6.64427945 8.32783443,6 7.5,6" id="Fill-31" fill="#008895"></path>
                <path d="M13.5,6 C12.6721656,6 12,6.63495 12,7.41695 L12,21.58305 C12,22.36505 12.6721656,23 13.5,23 C14.3278344,23 15,22.36505 15,21.58305 L15,7.41695 C15,6.63495 14.3278344,6 13.5,6" id="Fill-33" fill="#008895"></path>
                <path d="M19.5,6 C18.6721656,6 18,6.63495 18,7.41695 L18,21.58305 C18,22.36505 18.6721656,23 19.5,23 C20.3278344,23 21,22.36505 21,21.58305 L21,7.41695 C21,6.63495 20.3278344,6 19.5,6" id="Fill-35" fill="#008895"></path>
                <path d="M26,27.5622305 L26,7.43776953 C26,6.64427945 25.3276328,6 24.49955,6 C23.6714671,6 23,6.64427945 23,7.43776953 L23,27.5622305 C23,28.3557206 23.6714671,29 24.49955,29 C25.3276328,29 26,28.3557206 26,27.5622305" id="Fill-37" fill="#008895"></path>
                <path d="M30.5,6 C29.6721656,6 29,6.63495 29,7.41695 L29,21.58305 C29,22.36505 29.6721656,23 30.5,23 C31.3278344,23 32,22.36505 32,21.58305 L32,7.41695 C32,6.63495 31.3278344,6 30.5,6" id="Fill-39" fill="#008895"></path>
                <path d="M13.5071642,26 L13.4776119,26 C12.6537313,26 12,26.6723672 12,27.50045 C12,28.3276328 12.6832836,29 13.5071642,29 C14.3310448,29 15,28.3276328 15,27.50045 C15,26.6723672 14.3310448,26 13.5071642,26" id="Fill-41" fill="#008895"></path>
                <path d="M19.5076097,26 L19.477171,26 C18.6535363,26 18,26.6723672 18,27.50045 C18,28.3276328 18.6839749,29 19.5076097,29 C20.3312444,29 21,28.3276328 21,27.50045 C21,26.6723672 20.3312444,26 19.5076097,26" id="Fill-43" fill="#008895"></path>
                <path d="M30.5071642,26 L30.4776119,26 C29.6537313,26 29,26.6723672 29,27.50045 C29,28.3276328 29.6832836,29 30.5071642,29 C31.3310448,29 32,28.3276328 32,27.50045 C32,26.6723672 31.3310448,26 30.5071642,26" id="Fill-45" fill="#008895"></path>
            </g>
        </g>
    </g>
</svg>