<svg xmlns="http://www.w3.org/2000/svg" viewBox="0 0 72 72"><defs><style>.cls-1{fill:#008895;}</style></defs><title>aviso</title><g id="Capa_2" data-name="Capa 2"><g id="Capa_1-2" data-name="Capa 1"><path class="cls-1" d="M36,0A36,36,0,1,0,72,36,36,36,0,0,0,36,0Zm5,59.78a1.72,1.72,0,0,1-1.72,1.72H30.72A1.72,1.72,0,0,1,29,59.78V50.22a1.72,1.72,0,0,1,1.72-1.72h8.56A1.72,1.72,0,0,1,41,50.22Zm0-16.5A1.72,1.72,0,0,1,39.28,45H30.72A1.72,1.72,0,0,1,29,43.28L28,14.72A1.72,1.72,0,0,1,29.72,13H41.28A1.72,1.72,0,0,1,43,14.72Z"/></g></g></svg>