<svg xmlns="http://www.w3.org/2000/svg" width="37.85927" height="37.52641" viewBox="0 0 37.85927 37.52641"><title>buscador</title><g id="Layer_2" data-name="Layer 2"><g id="Layer_1-2" data-name="Layer 1"><path d="M37.78662,33.67219c.16724.16724.03571.56748-.29167.89668l-2.58674,2.5902c-.331.32737-.72944.46273-.89668.29549L22.49737,25.951c-.16724-.16724-.03571-.56566.29167-.8985l2.58674-2.58492c.331-.33083.72944-.46255.89668-.29713Z" style="fill:#404040"/><path d="M3.74931,3.75883a12.81774,12.81774,0,1,0,18.12538-.01075A12.81446,12.81446,0,0,0,3.74931,3.75883ZM19.7219,19.71357a9.76081,9.76081,0,1,1-.0071-13.80213A9.75066,9.75066,0,0,1,19.7219,19.71357Z" style="fill:#404040"/></g></g></svg>