<?xml version="1.0" encoding="UTF-8"?>
<svg width="17px" height="14px" viewBox="0 0 17 14" version="1.1" xmlns="http://www.w3.org/2000/svg" xmlns:xlink="http://www.w3.org/1999/xlink">
    <!-- Generator: Sketch 52.6 (67491) - http://www.bohemiancoding.com/sketch -->
    <title>Group 3</title>
    <desc>Created with Sketch.</desc>
    <defs>
        <polygon id="path-1" points="0 0 17 0 17 14 0 14"></polygon>
    </defs>
    <g id="Contra_recibo" stroke="none" stroke-width="1" fill="none" fill-rule="evenodd">
        <g id="enCierre13" transform="translate(-299.000000, -136.000000)">
            <g id="Group-3" transform="translate(299.000000, 136.000000)">
                <mask id="mask-2" fill="white">
                    <use xlink:href="#path-1"></use>
                </mask>
                <g id="Clip-2"></g>
                <path d="M14.6126967,3.54869177 C14.2783885,3.54869177 14.0083703,3.83101468 14.0083703,4.17855775 C14.0083703,4.52699426 14.2783885,4.80842374 14.6126967,4.80842374 C14.9461476,4.80842374 15.2161658,4.52699426 15.2161658,4.17855775 C15.2161658,3.83101468 14.9461476,3.54869177 14.6126967,3.54869177 Z M8.5008572,3.95609445 C6.56958451,3.95609445 4.99919322,5.59285258 4.99919322,7.60485003 C4.99919322,9.61774091 6.56958451,11.2536056 8.5008572,11.2536056 C10.4304155,11.2536056 12.0008068,9.61684748 12.0008068,7.60485003 C12.0008068,5.59285258 10.4304155,3.95609445 8.5008572,3.95609445 Z M8.5008572,11.9370772 C6.20870311,11.9370772 4.34429205,9.99387364 4.34429205,7.60574346 C4.34429205,5.21671985 6.20870311,3.27351627 8.5008572,3.27351627 C10.7912969,3.27351627 12.6557079,5.21671985 12.6557079,7.60574346 C12.6557079,9.99387364 10.7912969,11.9370772 8.5008572,11.9370772 Z M1.96470351,2.28270581 C1.2420835,2.28270581 0.65490117,2.89470325 0.65490117,3.64696873 L0.65490117,11.951372 C0.65490117,12.704531 1.2420835,13.3174218 1.96470351,13.3174218 L15.0352965,13.3174218 C15.7579165,13.3174218 16.3450988,12.704531 16.3450988,11.951372 L16.3450988,3.64696873 C16.3450988,2.89470325 15.7570593,2.28270581 15.0352965,2.28270581 L11.8602259,2.28270581 L11.5010589,0.949712827 C11.4684853,0.794256541 11.3339048,0.682578175 11.1821803,0.682578175 L5.81696248,0.682578175 C5.6635236,0.682578175 5.53237192,0.792469687 5.4980839,0.949712827 L5.12005849,2.28270581 L1.96470351,2.28270581 Z M1.96470351,14 C0.880344897,14 0,13.0815571 0,11.9522655 L0,3.64696873 C0,2.51857052 0.880344897,1.59923421 1.96470351,1.59923421 L4.63145422,1.59923421 L4.86461275,0.778174856 C4.9606192,0.329674537 5.35407422,0 5.81781969,0 L11.1830375,0 C11.6322106,0 12.0308088,0.32878111 12.1362445,0.782641991 L12.1431021,0.811231653 L12.3556878,1.59923421 L15.0352965,1.59923421 C16.1187979,1.59923421 17,2.51857052 17,3.64696873 L17,11.951372 C17,13.0815571 16.1187979,14 15.0352965,14 L1.96470351,14 Z" id="Fill-1" fill="#424242" mask="url(#mask-2)"></path>
            </g>
        </g>
    </g>
</svg>