<svg xmlns="http://www.w3.org/2000/svg" width="32.11417" height="43.28472" viewBox="0 0 32.11417 43.28472"><title>cerrar_pendiente</title><g id="Layer_2" data-name="Layer 2"><g id="Layer_1-2" data-name="Layer 1"><path d="M29.6709,0H2.44327A2.555,2.555,0,0,0,0,2.304V30.22952l13.823,13.0552H29.6709a2.55525,2.55525,0,0,0,2.44327-2.304V2.304A2.55489,2.55489,0,0,0,29.6709,0Zm0,0" style="fill:#fff"/><path d="M13.823,43.28472h.13974V32.32383a2.36049,2.36049,0,0,0-2.234-2.304L0,30.1596Zm0,0" style="fill:#dbdbdb"/><polyline points="0 30.16 13.823 43.285 13.963 43.285 13.963 32.114" style="fill:#dbdbdb"/><path d="M1.39639,30.1596V2.304A2.17956,2.17956,0,0,1,3.351,0H2.44327A2.555,2.555,0,0,0,0,2.304V30.22952Zm0,0" style="fill:#fff"/><path d="M14.10251,25.55167" style="fill:#44a307"/><path d="M13.68363,24.43486a.89742.89742,0,0,1-.69836-.27915l-4.25854-4.259a.9872.9872,0,0,1,1.39639-1.39584L13.68363,22.061l8.238-8.23793a.98739.98739,0,0,1,1.39639,1.39638l-8.86658,8.93629a1.05078,1.05078,0,0,1-.76784.27915Zm0,0" style="fill:#4ba92b"/></g></g></svg>