<svg xmlns="http://www.w3.org/2000/svg" width="40" height="40" viewBox="0 0 40 40"><title>check_in</title><g id="Layer_2" data-name="Layer 2"><g id="Layer_1-2" data-name="Layer 1"><path d="M40,20.00048A20,20,0,1,0,20.00024,40,19.99979,19.99979,0,0,0,40,20.00048Z" style="fill:#fff"/><path d="M31.01214,13.29955c-.47082-1.21406-1.43019-1.02243-2.46978-.81644-.62085.1294-3.38223.9377-7.7514,5.54483a36.9399,36.9399,0,0,0-3.79669,4.599c-.48106-.59062-1.03217-1.22253-1.61094-1.80155A23.31433,23.31433,0,0,0,11.535,17.77254a1.76936,1.76936,0,0,0-1.84812,3.01779A19.93275,19.93275,0,0,1,12.881,23.32785a27.4568,27.4568,0,0,1,2.8757,3.55262,1.76928,1.76928,0,0,0,3.18987-.55394c.00427-.01637.7059-1.95553,4.41231-5.86328,2.98526-3.14847,4.97608-4.14913,5.66586-4.42671l.02032-.00347c-.0033.00081.02233-.011.06393-.02975.11843-.04442.18188-.06143.18551-.06232a.47117.47117,0,0,1-.05168.01056l-.00113-.00613c.31917-.13923.91672-.39633.92978-.40181A1.662,1.662,0,0,0,31.01214,13.29955Z" style="fill:#008895"/></g></g></svg>