<svg xmlns="http://www.w3.org/2000/svg" width="30" height="30" viewBox="0 0 30 30"><title>detalle_visita</title><g id="Layer_2" data-name="Layer 2"><g id="Layer_1-2" data-name="Layer 1"><circle cx="15" cy="15" r="15" style="fill:#fff"/><path d="M14.9978,3.81015A5.47273,5.47273,0,1,1,9.53027,9.28458,5.47315,5.47315,0,0,1,14.9978,3.81015" style="fill:#008895"/><path d="M19.2617,14.63723a6.41888,6.41888,0,0,1-3.63021,1.60091l1.188,1.18576-1.77977,5.52462-1.8571-5.602,1.21007-1.10843a6.37585,6.37585,0,0,1-3.6501-1.60091A9.87,9.87,0,0,0,5.59537,23.3327H24.40463A9.87487,9.87487,0,0,0,19.2617,14.63723Z" style="fill:#008895"/></g></g></svg>