<svg xmlns="http://www.w3.org/2000/svg" width="20.85613" height="25.93562" viewBox="0 0 20.85613 25.93562"><title>documentos</title><g id="Layer_2" data-name="Layer 2"><g id="Layer_1-2" data-name="Layer 1"><path d="M17.88521,13.81124c0,.31149-.38.566-.84848.566H4.72612c-.46982,0-.85095-.25456-.85095-.566h0c0-.31408.38112-.56617.85095-.56617h12.3106c.46853,0,.84848.25209.84848.56617Z" style="fill:#008895"/><path d="M17.88521,11.25308c0,.31149-.38.566-.84848.566H4.72612c-.46982,0-.85095-.25456-.85095-.566h0c0-.31408.38112-.56734.85095-.56734h12.3106c.46853,0,.84848.25326.84848.56734Z" style="fill:#008895"/><path d="M17.88521,16.36045c0,.31278-.38.566-.84848.566H4.72612c-.46982,0-.85095-.25326-.85095-.566h0c0-.31278.38112-.5654.85095-.5654h12.3106c.46853,0,.84848.25261.84848.5654Z" style="fill:#008895"/><path d="M17.88521,18.77039c0,.31278-.38.5654-.84848.5654H4.72612c-.46982,0-.85095-.25261-.85095-.5654h0c0-.31408.38112-.56669.85095-.56669h12.3106c.46853,0,.84848.25261.84848.56669Z" style="fill:#008895"/><path d="M17.88521,21.29561c0,.31149-.38.566-.84848.566H4.72612c-.46982,0-.85095-.25456-.85095-.566h0c0-.31291.38112-.56734.85095-.56734h12.3106c.46853,0,.84848.25443.84848.56734Z" style="fill:#008895"/><path d="M20.75226,0H2.84047L0,4.041V25.93562H20.85613V0ZM1.20938,4.8274,3.47875,1.51451l.856.02282V1.51451h.80673V6.13689H1.2322ZM19.2301,24.52862H1.536l-.276-16.63148H6.60165v-6.299L19.2301,1.51581Z" style="fill:#008895"/></g></g></svg>