<svg xmlns="http://www.w3.org/2000/svg" viewBox="0 0 59 46.64"><defs><style>.cls-1,.cls-2{fill:#D7D7D7}.cls-2{fill-rule:evenodd;}</style></defs><title>en_cierre_verde</title><g id="Capa_2" data-name="Capa 2"><g id="Capa_1-2" data-name="Capa 1"><path class="cls-1" d="M5.33,13.64H53.67V26.76H43a1.39,1.39,0,0,0-1.37,1.12L40.46,34H18.54l-1.17-6.15A1.39,1.39,0,0,0,16,26.76H5.33ZM7.82,8.2H51.18v2.68H7.82Zm3.06-5.44H48.12V5.44H10.88Zm46.73,24H56.45V12.26a1.38,1.38,0,0,0-1.39-1.38H54V6.82a1.39,1.39,0,0,0-1.39-1.38H50.9V1.38A1.39,1.39,0,0,0,49.51,0h-40A1.39,1.39,0,0,0,8.1,1.38V5.44H6.43A1.39,1.39,0,0,0,5,6.82v4.06H3.94a1.38,1.38,0,0,0-1.39,1.38v14.5H1.39A1.38,1.38,0,0,0,0,28.14V45.26a1.38,1.38,0,0,0,1.39,1.38H57.61A1.38,1.38,0,0,0,59,45.26V28.14A1.38,1.38,0,0,0,57.61,26.76Z" style="fill:#008895" /><path class="cls-2" d="M40.79,19.27,29,28.76h0a.82.82,0,0,1-.2.12l0,0a.78.78,0,0,1-.21.09l0,0-.22.05h0a1,1,0,0,1-.24,0h-.29l-.05,0-.1,0,0,0-.09,0-.06,0-.07,0-.06,0-.07,0-.06,0-.06,0-.06,0,0,0-5.9-5.43a1.27,1.27,0,0,1,0-1.91,1.56,1.56,0,0,1,2.08,0l4.93,4.52,10.76-8.65a1.56,1.56,0,0,1,2.08.12,1.3,1.3,0,0,1-.14,1.92"/></g></g></svg>