<svg xmlns="http://www.w3.org/2000/svg" width="59" height="47" style=""><rect id="backgroundrect" width="100%" height="100%" x="0" y="0" fill="none" stroke="none" class="" style=""/><defs><style>.cls-1,.cls-2{fill:#D7D7D7}.cls-2{fill-rule:evenodd;}</style><radialGradient id="svg_3" spreadMethod="pad"><stop stop-color="#41e841" stop-opacity="1" offset="0"/><stop stop-color="#be17be" stop-opacity="1" offset="1"/></radialGradient></defs><title>en_cierre_verde</title><g class="currentLayer" style=""><title>Layer 1</title><g id="Capa_2" data-name="Capa 2" class="" fill="#eb1a1a" fill-opacity="1"><g id="Capa_1-2" data-name="Capa 1" fill="#eb1a1a" fill-opacity="1"><path class="cls-1" d="M5.330000000489246,13.64014437866048 H53.670000000489246 V26.76014437866048 H43.000000000489244 a1.3900000000000001,1.3900000000000001 0 0 0 -1.37,1.12 L40.460000000489245,34.00014437866048 H18.540000000489247 l-1.17,-6.15 A1.3900000000000001,1.3900000000000001 0 0 0 16.000000000489248,26.76014437866048 H5.330000000489246 zM7.820000000489246,8.200144378660479 H51.180000000489244 v2.68 H7.820000000489246 zm3.06,-5.44 H48.12000000048924 V5.44014437866048 H10.880000000489247 zm46.73,24 H56.45000000048925 V12.26014437866048 a1.3800000000000001,1.3800000000000001 0 0 0 -1.3900000000000001,-1.3800000000000001 H54.000000000489244 V6.82014437866048 a1.3900000000000001,1.3900000000000001 0 0 0 -1.3900000000000001,-1.3800000000000001 H50.90000000048924 V1.3801443786604797 A1.3900000000000001,1.3900000000000001 0 0 0 49.51000000048924,0.0001443786604795605 h-40 A1.3900000000000001,1.3900000000000001 0 0 0 8.100000000489246,1.3801443786604797 V5.44014437866048 H6.430000000489246 A1.3900000000000001,1.3900000000000001 0 0 0 5.000000000489246,6.82014437866048 v4.06 H3.940000000489246 a1.3800000000000001,1.3800000000000001 0 0 0 -1.3900000000000001,1.3800000000000001 v14.5 H1.3900000004892463 A1.3800000000000001,1.3800000000000001 0 0 0 4.892461435979101e-10,28.14014437866048 V45.26014437866048 a1.3800000000000001,1.3800000000000001 0 0 0 1.3900000000000001,1.3800000000000001 H57.610000000489244 A1.3800000000000001,1.3800000000000001 0 0 0 59.000000000489244,45.26014437866048 V28.14014437866048 A1.3800000000000001,1.3800000000000001 0 0 0 57.610000000489244,26.76014437866048 z" style="" id="svg_1" fill="#eb1a1a" fill-opacity="1"/><path class="cls-2" d="M40.79000000048924,19.27014437866048 L29.000000000489248,28.76014437866048 h0 a0.8200000000000001,0.8200000000000001 0 0 1 -0.2,0.12000000000000001 l0,0 a0.78,0.78 0 0 1 -0.21000000000000002,0.09000000000000002 l0,0 l-0.22000000000000003,0.05000000000000001 h0 a1,1 0 0 1 -0.24000000000000002,0 h-0.29000000000000004 l-0.05000000000000001,0 l-0.1,0 l0,0 l-0.09000000000000002,0 l-0.06000000000000001,0 l-0.07,0 l-0.06000000000000001,0 l-0.07,0 l-0.06000000000000001,0 l-0.06000000000000001,0 l-0.06000000000000001,0 l0,0 l-5.9,-5.43 a1.27,1.27 0 0 1 0,-1.9100000000000001 a1.56,1.56 0 0 1 2.08,0 l4.93,4.52 l10.76,-8.65 a1.56,1.56 0 0 1 2.08,0.12000000000000001 a1.3,1.3 0 0 1 -0.14,1.92 " id="svg_2" fill="#eb1a1a" fill-opacity="1"/></g></g></g></svg>