<?xml version="1.0" encoding="UTF-8"?>
<svg width="526px" height="578px" viewBox="0 0 526 578" version="1.1" xmlns="http://www.w3.org/2000/svg" xmlns:xlink="http://www.w3.org/1999/xlink">
    <!-- Generator: Sketch 50.2 (55047) - http://www.bohemiancoding.com/sketch -->
    <title>Page 1</title>
    <desc>Created with Sketch.</desc>
    <defs>
        <polygon id="path-1" points="0 0.0551740241 525.427678 0.0551740241 525.427678 288.282072 0 288.282072"></polygon>
    </defs>
    <g id="login" stroke="none" stroke-width="1" fill="none" fill-rule="evenodd">
        <g id="login-2-2" transform="translate(-458.000000, -179.000000)">
            <g id="Group" transform="translate(326.000000, 179.000000)">
                <g id="Page-1" transform="translate(132.000000, 0.000000)">
                    <path d="M0,238.95805 L0,263.15657 L77.0158039,263.15657 C77.0158039,262.019693 77.0939546,254.891302 77.1636106,253.835872 C82.1210825,155.962608 163.360421,77.9270054 262.489472,77.9270054 C361.287232,77.9270054 442.377065,155.480708 447.803441,252.843226 C447.868,254.221053 447.975033,261.710869 447.975033,263.129421 L526,263.129421 C525.986409,261.710869 525.972817,254.29232 525.906559,252.922977 C520.425817,112.538983 404.336368,0 262.489472,0 C125.331617,0 12.3223248,105.152673 0,238.95805" id="Fill-1" fill="#404040"></path>
                    <g id="Group-5" transform="translate(0.000000, 289.604467)">
                        <mask id="mask-2" fill="white">
                            <use xlink:href="#path-1"></use>
                        </mask>
                        <g id="Clip-4"></g>
                        <polygon id="Fill-3" fill="#008895" mask="url(#mask-2)" points="447.608523 87.3937842 262.263091 201.264228 77.2553168 87.1261965 77.2807684 0.0551740241 -0.000509032258 0.0551740241 -0.000509032258 137.451324 261.03293 288.282749 263.522097 288.282749 525.319085 137.490276 525.427678 0.0551740241 447.701846 0.0551740241"></polygon>
                    </g>
                </g>
            </g>
        </g>
    </g>
</svg>