<?xml version="1.0" encoding="UTF-8"?>
<svg width="10px" height="10px" viewBox="0 0 10 10" version="1.1" xmlns="http://www.w3.org/2000/svg" xmlns:xlink="http://www.w3.org/1999/xlink">
    <!-- Generator: Sketch 52.6 (67491) - http://www.bohemiancoding.com/sketch -->
    <title>Fill 1 Copy</title>
    <desc>Created with Sketch.</desc>
    <g id="Contra_recibo" stroke="none" stroke-width="1" fill="none" fill-rule="evenodd">
        <g id="enCierre2-" transform="translate(-68.000000, -335.000000)" fill="#C2C3C9">
            <path d="M77.5294291,335.202336 C77.4094291,335.105194 76.7694291,334.854479 76.3480005,335.114479 C76.3480005,335.114479 75.9751434,335.462336 75.4258577,336.008051 L75.2287148,336.278765 L75.1887148,336.246622 C74.7294291,336.703765 74.1822863,337.263051 73.6244291,337.865908 C72.6980005,338.862336 71.7594291,340.095194 71.0801434,341.035194 L69.7937148,339.202336 C69.5758577,338.625194 69.1001434,338.330908 68.5201434,338.549479 C67.9380005,338.767336 67.9058577,339.453051 68.1251434,340.031622 L69.8287148,343.553051 C69.8287148,343.553051 69.831572,343.560194 69.831572,343.563051 C69.8887148,343.748051 69.9858577,343.917336 70.1380005,344.057336 C70.5944291,344.475194 71.3044291,344.445908 71.7258577,343.995194 C71.7258577,343.995194 73.3987148,341.160194 75.1858577,339.235194 C76.4987148,337.816622 77.6451434,336.330194 77.6451434,336.330194 C77.9394291,335.834479 77.6644291,335.314479 77.5294291,335.202336" id="Fill-1-Copy"></path>
        </g>
    </g>
</svg>