<?xml version="1.0" encoding="UTF-8"?>
<svg width="14px" height="14px" viewBox="0 0 14 14" version="1.1" xmlns="http://www.w3.org/2000/svg" xmlns:xlink="http://www.w3.org/1999/xlink">
    <!-- Generator: Sketch 52.6 (67491) - http://www.bohemiancoding.com/sketch -->
    <title>Fill 1 Copy 2</title>
    <desc>Created with Sketch.</desc>
    <g id="Contra_recibo" stroke="none" stroke-width="1" fill="none" fill-rule="evenodd">
        <g id="enCierre3" transform="translate(-308.000000, -216.000000)" fill="#FFFFFF">
            <path d="M321.428529,216.288871 C321.259429,216.150182 320.357564,215.792244 319.763702,216.163439 C319.763702,216.163439 319.238285,216.660067 318.464252,217.43917 L318.186445,217.825662 L318.130079,217.779772 C317.48287,218.432424 316.711856,219.230903 315.925743,220.091587 C314.620254,221.514164 313.297652,223.274284 312.340427,224.616299 L310.527638,221.999574 C310.220642,221.175601 309.550283,220.755456 308.732967,221.067505 C307.912633,221.378535 307.867338,222.357512 308.176348,223.183525 L310.576959,228.210983 C310.576959,228.210983 310.580985,228.22118 310.580985,228.225259 C310.661509,228.489379 310.798399,228.731065 311.012794,228.930939 C311.655976,229.527504 312.656483,229.485693 313.250345,228.842219 C313.250345,228.842219 315.607675,224.794759 318.126052,222.046483 C319.976084,220.021223 321.591589,217.899085 321.591589,217.899085 C322.006286,217.191366 321.618766,216.448974 321.428529,216.288871" id="Fill-1-Copy-2"></path>
        </g>
    </g>
</svg>