<?xml version="1.0" encoding="UTF-8"?>
<svg width="22px" height="22px" viewBox="0 0 22 22" version="1.1" xmlns="http://www.w3.org/2000/svg" xmlns:xlink="http://www.w3.org/1999/xlink">
    <!-- Generator: Sketch 52.6 (67491) - http://www.bohemiancoding.com/sketch -->
    <title>Group</title>
    <desc>Created with Sketch.</desc>
    <g id="Page-1" stroke="none" stroke-width="1" fill="none" fill-rule="evenodd">
        <g id="manual2" transform="translate(-312.000000, -32.000000)">
            <g id="Group" transform="translate(313.000000, 33.000000)">
                <path d="M20,10 C20,15.522 15.523,20 10,20 C4.478,20 0,15.522 0,10 C0,4.476 4.478,0 10,0 C15.523,0 20,4.476 20,10" id="Fill-1-Copy-24" fill="#FFFFFF"></path>
                <path d="M20,10 C20,15.522 15.523,20 10,20 C4.478,20 0,15.522 0,10 C0,4.476 4.478,0 10,0 C15.523,0 20,4.476 20,10 Z" id="Stroke-3-Copy" stroke="#008894"></path>
                <path d="M17.655,9.93 C17.655,14.087 14.286,17.457 10.128,17.457 C5.97,17.457 2.6,14.087 2.6,9.93 C2.6,5.771 5.97,2.4 10.128,2.4 C14.286,2.4 17.655,5.771 17.655,9.93" id="Fill-5-Copy" fill="#008894"></path>
            </g>
        </g>
    </g>
</svg>