<svg xmlns="http://www.w3.org/2000/svg" viewBox="0 0 214 202.16"><defs><style>.cls-1{fill:#4c8692;}</style></defs><title>seleccionar_todo</title><g id="Capa_2" data-name="Capa 2"><g id="Capa_1-2" data-name="Capa 1"><path class="cls-1" d="M15.92,53.64,15.5,174.1H49.4l0,15.5H10.65A10.67,10.67,0,0,1,0,179V48.78A10.66,10.66,0,0,1,10.65,38.14h5.13Zm187.84,0Z"/><path class="cls-1" d="M173.34,38.25h-8.42V15.5H46.63V135.77h2.08l0,15.51H39.25a8.14,8.14,0,0,1-8.12-8.13V8.12A8.14,8.14,0,0,1,39.25,0H172.3A8.17,8.17,0,0,1,178,2.38,7.87,7.87,0,0,1,179.77,5a8.06,8.06,0,0,1,.65,3.17V28.9C174.51,33.1,173.34,38.25,173.34,38.25Z"/><path class="cls-1" d="M156.15,67.47H79.31V186.65H198.5V105.08L214,78V194a8.14,8.14,0,0,1-8.12,8.13H71.93A8.14,8.14,0,0,1,63.81,194V60.09a8.08,8.08,0,0,1,.65-3.18,8.26,8.26,0,0,1,1.73-2.57A8.1,8.1,0,0,1,71.93,52h93.64Z"/><path class="cls-1" d="M138.38,157h-.11a7.76,7.76,0,0,1-6.64-3.93L104.57,105.3a7.75,7.75,0,1,1,13.48-7.64l20.54,36.24,50.79-84.26a7.75,7.75,0,0,1,13.28,8L145,153.26A7.77,7.77,0,0,1,138.38,157Z"/></g></g></svg>