<svg xmlns="http://www.w3.org/2000/svg" width="22" height="17.2676" viewBox="0 0 22 17.2676"><title>solicitud</title><g id="Layer_2" data-name="Layer 2"><g id="Layer_1-2" data-name="Layer 1"><path d="M8.3164,0a4.8406,4.8406,0,1,1-4.836,4.8421A4.841,4.841,0,0,1,8.3164,0" style="fill:#9b065c"/><path d="M12.0878,9.5765a5.67747,5.67747,0,0,1-3.2109,1.416l1.0508,1.0488L8.3535,16.9278,6.7109,11.9729l1.0703-.9804a5.63941,5.63941,0,0,1-3.2285-1.416A8.73,8.73,0,0,0,0,17.2676H16.6367A8.73427,8.73427,0,0,0,12.0878,9.5765Z" style="fill:#9b065c"/><path d="M21.455,5.0569a4.03949,4.03949,0,0,0-1.4804-1.4804,4.08706,4.08706,0,0,0-4.0806,0,4.028,4.028,0,0,0-1.48,1.4804,4.08208,4.08208,0,0,0,0,4.0821,4.031,4.031,0,0,0,1.4783,1.4782,4.07472,4.07472,0,0,0,4.0823,0A4.03809,4.03809,0,0,0,21.455,9.139a4.09441,4.09441,0,0,0,0-4.0821Zm-2.8437,4.576a.17574.17574,0,0,1-.0469.1252.15743.15743,0,0,1-.1172.05H17.4311a.179.179,0,0,1-.1225-.052.17.17,0,0,1-.0528-.1232V8.627a.16919.16919,0,0,1,.0528-.1209.17164.17164,0,0,1,.1225-.0527h1.0161a.1505.1505,0,0,1,.1172.0508.172.172,0,0,1,.0469.1228ZM18.601,7.814a.13139.13139,0,0,1-.0561.0906.183.183,0,0,1-.1231.0422h-.9804a.19686.19686,0,0,1-.127-.0422.11583.11583,0,0,1-.0527-.0906l-.0899-3.2903a.1066.1066,0,0,1,.0528-.0959.19953.19953,0,0,1,.1264-.0408h1.1663a.20176.20176,0,0,1,.1267.0408.10454.10454,0,0,1,.0513.0959Zm0,0" style="fill:#9b065c"/></g></g></svg>