<?xml version="1.0" encoding="UTF-8"?>
<svg width="9px" height="9px" viewBox="0 0 9 9" version="1.1" xmlns="http://www.w3.org/2000/svg" xmlns:xlink="http://www.w3.org/1999/xlink">
    <!-- Generator: Sketch 52.6 (67491) - http://www.bohemiancoding.com/sketch -->
    <title>Fill 1 Copy 2</title>
    <desc>Created with Sketch.</desc>
    <g id="Contra_recibo" stroke="none" stroke-width="1" fill="none" fill-rule="evenodd">
        <g id="enCierre2-" transform="translate(-68.000000, -376.000000)" fill="#C2C3C9">
            <path d="M73.9517268,380.5078 L76.819913,377.6398 C77.060029,377.3986 77.060029,377.0074 76.819913,376.7644 L76.2340298,376.18 C75.994514,375.94 75.6031249,375.94 75.3600074,376.18 L72.4918212,379.048 L69.6404431,376.198 C69.4003271,375.9574 69.0083376,375.958 68.7640195,376.1974 L68.1805375,376.7812 C67.9392209,377.0218 67.9404215,377.4136 68.1805375,377.6578 L71.0319156,380.5078 L68.1841393,383.3524 C67.9428226,383.593 67.9428226,383.9842 68.1841393,384.2284 L68.767021,384.8116 C69.0083376,385.0516 69.3991265,385.0516 69.6440449,384.8116 L72.4918212,381.9664 L75.3462007,384.82 C75.5863168,385.06 75.9777059,385.06 76.222024,384.82 L76.805506,384.2356 C77.0462223,383.995 77.0462223,383.6032 76.805506,383.3596 L73.9517268,380.5078 Z" id="Fill-1-Copy-2"></path>
        </g>
    </g>
</svg>