<?xml version="1.0" encoding="UTF-8"?>
<svg width="13px" height="13px" viewBox="0 0 13 13" version="1.1" xmlns="http://www.w3.org/2000/svg" xmlns:xlink="http://www.w3.org/1999/xlink">
    <!-- Generator: Sketch 52.6 (67491) - http://www.bohemiancoding.com/sketch -->
    <title>Fill 1 Copy 3</title>
    <desc>Created with Sketch.</desc>
    <g id="Contra_recibo" stroke="none" stroke-width="1" fill="none" fill-rule="evenodd">
        <g id="enCierre3" transform="translate(-259.000000, -217.000000)" fill="#FFFFFF">
            <path d="M267.596939,223.511267 L271.739874,219.3686 C272.086709,219.0202 272.086709,218.455133 271.739874,218.104133 L270.893599,217.26 C270.547631,216.913333 269.982292,216.913333 269.631122,217.26 L265.488186,221.402667 L261.369529,217.286 C261.022695,216.938467 260.456488,216.939333 260.103584,217.285133 L259.260776,218.1284 C258.912208,218.475933 258.913942,219.041867 259.260776,219.3946 L263.379434,223.511267 L259.265979,227.620133 C258.91741,227.967667 258.91741,228.532733 259.265979,228.885467 L260.107919,229.727867 C260.456488,230.074533 261.02096,230.074533 261.374731,229.727867 L265.488186,225.618133 L269.611179,229.74 C269.958013,230.086667 270.523353,230.086667 270.876257,229.74 L271.719064,228.895867 C272.066766,228.548333 272.066766,227.9824 271.719064,227.630533 L267.596939,223.511267 Z" id="Fill-1-Copy-3"></path>
        </g>
    </g>
</svg>